<svg width="14" height="14" viewBox="0 0 14 14" fill="none" xmlns="http://www.w3.org/2000/svg">
<path fill-rule="evenodd" clip-rule="evenodd" d="M13.4173 7.00017C13.4173 3.45658 10.5298 0.574427 6.98462 0.583518C3.46615 0.592608 0.592027 3.46567 0.584006 6.98413C0.574916 10.5293 3.45706 13.4168 7.00066 13.4168H11.2169C11.7995 13.4168 12.3582 13.1854 12.7702 12.7735C13.1821 12.3615 13.4136 11.8028 13.4136 11.2202V7.21406C13.4157 7.14294 13.4173 7.07183 13.4173 7.00017ZM3.7009 10.5636C2.67958 9.69196 2.04968 8.29634 2.07909 6.87398C2.08123 6.77452 2.08604 6.67506 2.09513 6.57561V6.56919C2.24325 4.87198 3.33943 3.28921 4.87568 2.55397C6.41247 1.81872 8.33319 1.95936 9.74699 2.90902C11.1608 3.85922 12.0158 5.58477 11.9158 7.28518C11.8911 7.65751 11.8322 8.02677 11.7399 8.38831C11.7046 8.53269 11.6613 8.68187 11.5592 8.78935C11.4576 8.89683 11.279 8.94709 11.1581 8.861C11.0426 8.77866 11.0255 8.61717 11.0159 8.47601C10.9357 7.33491 10.6309 6.15799 9.85982 5.31313C9.26696 4.67174 8.45838 4.27155 7.58886 4.18914C6.71938 4.11397 5.85159 4.35134 5.14144 4.85861C4.55378 5.27944 4.09231 5.88207 3.8688 6.56972C3.64636 7.25684 3.66881 8.02737 3.96238 8.68829C4.17992 9.17624 4.53242 9.59183 4.97835 9.88606C5.76278 10.401 6.8365 10.4743 7.65195 10.0091C8.46687 9.54384 8.954 8.53429 8.74653 7.61885C8.53852 6.7034 7.61078 5.98955 6.67716 6.08634C6.53492 6.10077 6.33066 6.08527 6.32584 5.94196C6.32157 5.83127 6.45471 5.77299 6.56379 5.7532C7.51079 5.58316 8.52622 6.06441 9.0449 6.87451C9.56519 7.68462 9.59139 8.76957 9.16735 9.63368C8.74278 10.4973 7.90006 11.1282 6.96537 11.356C5.70503 11.6635 4.56394 11.2999 3.70197 10.5636H3.7009Z" fill="#2F3640"/>
</svg>
