<svg width="14" height="14" viewBox="0 0 14 14" fill="none" xmlns="http://www.w3.org/2000/svg">
<path fill-rule="evenodd" clip-rule="evenodd" d="M3.20428 12.3864C2.55561 11.5399 2.55736 9.8996 3.15703 8.03527L0.498781 6.5011C0.360997 6.4236 0.243967 6.31397 0.15764 6.18154C0.0713143 6.0491 0.018246 5.89778 0.00294777 5.74043C-0.00714718 5.61755 0.00875353 5.49393 0.0496144 5.3776C0.209427 4.92108 0.411963 4.48065 0.654531 4.06218C2.6822 0.550518 7.0222 -0.738649 10.3489 1.18168C10.6173 1.33685 10.8273 1.57252 10.9795 1.87235C11.4374 2.7736 11.3791 4.26168 10.843 5.92885L13.5013 7.4636C13.699 7.57793 13.8489 7.7506 13.9306 7.94893C14.0155 8.15176 14.0226 8.3788 13.9504 8.58652C13.7907 9.04309 13.5882 9.48352 13.3455 9.90193C11.3179 13.4136 6.97786 14.7028 3.65111 12.7824C3.47734 12.6811 3.32545 12.5469 3.20428 12.3864ZM9.67695 8.5276C8.4677 10.6224 6.28895 11.6286 4.8102 10.7746C4.07112 10.3482 3.64703 9.53677 3.55895 8.57077C3.50353 7.96702 3.57995 7.30318 3.79228 6.6341C3.91886 6.2351 4.09386 5.83493 4.31845 5.44468L4.32311 5.43652C5.53236 3.34235 7.71111 2.3361 9.18987 3.18952C9.55912 3.40302 9.84903 3.7116 10.059 4.08785C10.6342 5.12152 10.5969 6.66327 9.89278 8.12102C9.82803 8.25518 9.75745 8.3876 9.68161 8.51943L9.67695 8.5276Z" fill="#2F3640"/>
</svg>
