<svg width="24" height="24" viewBox="0 0 24 24" fill="none" xmlns="http://www.w3.org/2000/svg">
<path d="M13 1C15.2247 1 16.7263 2.87062 17.6016 4.61328C18.511 6.42409 19 8.57723 19 10C19 11.2813 18.8426 12.5357 18.5439 13.7295C19.0337 13.8918 19.5052 14.1101 19.9463 14.3857L20.2949 14.6201C21.0896 15.1913 21.7466 15.9355 22.2148 16.7988C22.7498 17.7857 23.0207 18.8951 23 20.0176C22.9898 20.5698 22.5336 21.0092 21.9814 20.999C21.4293 20.9888 20.9898 20.5326 21 19.9805C21.0143 19.2035 20.8273 18.4361 20.457 17.7529C20.0864 17.0696 19.5449 16.494 18.8857 16.082C18.5837 15.8932 18.2609 15.7437 17.9258 15.6318C16.2002 19.8997 12.4912 23 7.50977 23C6.34431 23 4.84087 23.0058 3.62891 22.7246C3.01911 22.5831 2.37773 22.3465 1.87402 21.916C1.33007 21.4511 1 20.802 1 20C1 19.4995 1.09575 19.018 1.3584 18.5918C1.62234 18.1635 1.9942 17.889 2.37109 17.6992C2.73389 17.5166 3.14703 17.3894 3.54492 17.2803C3.74833 17.2245 3.967 17.1692 4.18652 17.1123C4.40926 17.0546 4.63997 16.9941 4.88184 16.9268L4.88477 16.9258C7.30518 16.2592 9.19162 14.7937 10.3389 12.9521C10.0436 12.8543 9.73863 12.7834 9.42578 12.7402C7.87999 12.527 6.10125 12.95 4.49609 13.8672C4.01658 14.1412 3.40585 13.9746 3.13184 13.4951C2.85797 13.0156 3.02445 12.4048 3.50391 12.1309C5.39869 11.0481 7.62009 10.472 9.69922 10.7588C10.211 10.8294 10.7103 10.9538 11.1904 11.1318C11.6999 9.56888 11.7355 7.86121 11.1982 6.19727L11.1973 6.19238C10.8793 5.19083 10.6677 4.05246 10.7969 3.10156C10.8623 2.62031 11.0275 2.09065 11.4092 1.66992C11.819 1.21822 12.3796 1 13 1ZM12.0508 13.9844C10.6328 16.2646 8.31472 18.056 5.41504 18.8545L5.41406 18.8535C5.15503 18.9256 4.91159 18.9901 4.68848 19.0479C4.46107 19.1067 4.26021 19.158 4.07422 19.209C3.69317 19.3135 3.44388 19.3981 3.27051 19.4854C3.11164 19.5654 3.07314 19.6202 3.06055 19.6406C3.04666 19.6632 3 19.7505 3 20C3 20.198 3.0587 20.2989 3.17285 20.3965C3.32727 20.5285 3.61342 20.6669 4.08105 20.7754C5.02395 20.9942 6.27534 21 7.50977 21C11.2768 21 14.2793 18.7746 15.835 15.4473C15.356 15.5188 14.8898 15.6677 14.4551 15.8896L13.5566 16.3486L13.1055 15.4463C12.8095 14.8544 12.4525 14.372 12.0508 13.9844ZM12.918 3.00586L12.8906 3.01367C12.8786 3.02697 12.813 3.11613 12.7783 3.37109C12.7076 3.89268 12.8215 4.69961 13.1035 5.58789C13.8255 7.82774 13.7178 10.0958 12.9629 12.127C13.5088 12.5596 14.0037 13.0939 14.4277 13.7393C15.1167 13.5073 15.8409 13.3909 16.5713 13.3984C16.8499 12.3299 17 11.1886 17 10C17 8.92281 16.599 7.07587 15.8135 5.51172C14.9937 3.87943 13.9953 3 13 3C12.9621 3 12.9355 3.00262 12.918 3.00586Z" fill="black"/>
</svg>
