<svg width="14" height="14" viewBox="0 0 14 14" fill="none" xmlns="http://www.w3.org/2000/svg">
<path d="M6.82715 0.583984C7.02601 0.582235 7.24984 0.60269 7.35254 0.782227C7.58168 1.18453 7.80972 1.58814 8.03711 1.99219C8.04629 2.00832 8.06012 2.02193 8.07617 2.03125C8.09218 2.04053 8.11041 2.0459 8.12891 2.0459H11.3682C11.4695 2.04609 11.5557 2.10996 11.6279 2.23633L12.4766 3.73535C12.5873 3.93177 12.616 4.01444 12.4902 4.22363C12.3386 4.47442 12.1909 4.72814 12.0469 4.98242L11.833 5.36621C11.7712 5.4804 11.7031 5.52896 11.8096 5.66406L13.3564 8.36914C13.4568 8.54468 13.4208 8.65743 13.3311 8.81836C13.0762 9.27623 12.817 9.73097 12.5527 10.1836C12.46 10.3422 12.3474 10.4023 12.1562 10.3994C11.7031 10.3901 11.2508 10.393 10.7988 10.4082C10.7893 10.4087 10.7796 10.4121 10.7715 10.417C10.7632 10.4221 10.7558 10.43 10.751 10.4385C10.2295 11.3624 9.70405 12.2842 9.17383 13.2031C9.07534 13.3738 8.95187 13.4144 8.75098 13.415C8.16939 13.4168 7.58232 13.4172 6.99023 13.416C6.93532 13.4158 6.88146 13.4016 6.83398 13.374C6.78652 13.3464 6.74702 13.3065 6.71973 13.2588L5.94043 11.9033C5.93595 11.8946 5.92931 11.8869 5.9209 11.8818C5.91247 11.8769 5.90236 11.8748 5.89258 11.875H2.90625C2.74032 11.8924 2.58425 11.8742 2.4375 11.8213L1.50195 10.2051C1.47436 10.1573 1.46018 10.103 1.45996 10.0479C1.45979 9.99272 1.47377 9.93858 1.50098 9.89062L2.20508 8.65332C2.21499 8.63591 2.21973 8.61574 2.21973 8.5957C2.21965 8.57569 2.21504 8.55545 2.20508 8.53809C1.83839 7.90323 1.47366 7.26723 1.11133 6.62988L0.650391 5.81641C0.557183 5.63573 0.549795 5.52638 0.706055 5.25293C0.977206 4.77885 1.24641 4.30494 1.51465 3.83203C1.59163 3.6957 1.69225 3.63731 1.85547 3.63672C2.3587 3.6346 2.862 3.63499 3.36523 3.63672C3.37788 3.63662 3.39045 3.63237 3.40137 3.62598C3.41233 3.61952 3.42246 3.61068 3.42871 3.59961L5.06543 0.744141C5.09021 0.700877 5.12588 0.664776 5.16895 0.639648C5.21213 0.614511 5.26156 0.600767 5.31152 0.600586C5.617 0.600004 5.9254 0.601153 6.23438 0.597656L6.82715 0.583984ZM5.33301 1.02148C5.32772 1.02456 5.32337 1.02987 5.32031 1.03516L3.64844 3.95996C3.64042 3.97369 3.62899 3.9852 3.61523 3.99316C3.60142 4.00114 3.58529 4.00579 3.56934 4.00586H1.89844C1.86584 4.00586 1.85725 4.02037 1.87402 4.04883L5.26367 9.97266C5.2782 9.99711 5.27055 10.0092 5.24316 10.0098L3.61328 10.0186C3.58956 10.0178 3.56548 10.0233 3.54492 10.0352C3.52435 10.0471 3.50724 10.0649 3.49609 10.0859L2.72656 11.4336C2.70103 11.4789 2.71405 11.5018 2.76562 11.502L6.09961 11.5078C6.12644 11.5078 6.14713 11.5191 6.16113 11.543L6.97949 12.9746C7.00625 13.0216 7.03321 13.0222 7.06055 12.9746L9.98047 7.86426L10.4375 7.05859C10.4403 7.05366 10.4444 7.04879 10.4492 7.0459C10.4541 7.04313 10.4602 7.042 10.4658 7.04199C10.4713 7.04205 10.4767 7.04323 10.4814 7.0459C10.4863 7.04878 10.4904 7.05364 10.4932 7.05859L11.3242 8.53418C11.3304 8.54503 11.3398 8.55427 11.3506 8.56055C11.3615 8.56682 11.3741 8.57039 11.3867 8.57031L12.998 8.55859C13.0021 8.55863 13.0062 8.55759 13.0098 8.55566C13.0133 8.55364 13.0165 8.5504 13.0186 8.54688C13.0205 8.54336 13.0215 8.53918 13.0215 8.53516C13.0215 8.53115 13.0205 8.52694 13.0186 8.52344L11.3271 5.55664C11.3211 5.54678 11.3174 5.53499 11.3174 5.52344C11.3174 5.51207 11.3213 5.50094 11.3271 5.49121L11.498 5.19531L12.1514 4.04199C12.1653 4.0182 12.158 4.00593 12.1309 4.00586H5.36719C5.33302 4.00581 5.32454 3.99046 5.3418 3.96094L6.17871 2.49902C6.18472 2.48933 6.18836 2.4782 6.18848 2.4668C6.18848 2.45503 6.18498 2.44257 6.17871 2.43262L5.38184 1.03516C5.37879 1.02969 5.37356 1.02464 5.36816 1.02148C5.36293 1.01857 5.35659 1.01757 5.35059 1.01758C5.3446 1.01763 5.3382 1.01851 5.33301 1.02148ZM9.02051 5.69531C9.04684 5.69549 9.05296 5.70731 9.03906 5.73047L8.55371 6.58496L7.03027 9.25977C7.02741 9.26491 7.02267 9.26951 7.01758 9.27246C7.01261 9.27526 7.00668 9.27641 7.00098 9.27637C6.99529 9.2763 6.98933 9.27525 6.98438 9.27246C6.9793 9.26952 6.97464 9.26483 6.97168 9.25977L4.95703 5.74121C4.94562 5.72164 4.95181 5.7112 4.97363 5.70996L5.09961 5.70312L9.02051 5.69531Z" fill="#2F3640"/>
</svg>
