<svg width="14" height="14" viewBox="0 0 14 14" fill="none" xmlns="http://www.w3.org/2000/svg">
<path fill-rule="evenodd" clip-rule="evenodd" d="M8.71666 10.8423L7.72266 10.5827V5.83906L8.78666 5.56956C9.36999 5.42139 9.85999 5.30064 9.88332 5.30531C9.90199 5.30531 9.91599 6.60906 9.91599 8.20564V11.1066L9.81332 11.1019C9.75266 11.1019 9.25799 10.9817 8.71666 10.8423Z" fill="#2F3640"/>
<path fill-rule="evenodd" clip-rule="evenodd" d="M4.08398 9.64927C4.08398 8.05327 4.09798 6.74427 4.12132 6.74427C4.13998 6.7396 4.62998 6.86094 5.21798 7.0091L6.27732 7.27802L6.26798 9.64052L6.25398 12.0024L5.30198 12.2486C4.77932 12.3828 4.28932 12.5082 4.21932 12.5222L4.08398 12.5549V9.64927Z" fill="#2F3640"/>
<path fill-rule="evenodd" clip-rule="evenodd" d="M11.2227 7.27823C11.2227 2.01073 11.2273 1.72781 11.3067 1.75115C11.3487 1.76515 11.764 1.8719 12.226 1.98798C12.688 2.10873 13.1453 2.22423 13.2433 2.24756L13.416 2.29423L13.4067 7.28756L13.3927 12.2856L12.4453 12.5271C11.9273 12.6612 11.4373 12.782 11.3627 12.8012L11.2227 12.8333V7.27823Z" fill="#2F3640"/>
<path fill-rule="evenodd" clip-rule="evenodd" d="M0.583984 7.2967C0.583984 4.56787 0.597984 2.33545 0.621318 2.33545C0.639984 2.33545 1.12998 2.4562 1.71332 2.60028L2.77732 2.8692V7.29203C2.77732 9.7187 2.76798 11.7102 2.75865 11.7102C2.74465 11.7102 2.24998 11.8356 1.66198 11.9844L0.583984 12.2574V7.2967Z" fill="#2F3640"/>
</svg>
