<svg width="24" height="24" viewBox="0 0 24 24" fill="none" xmlns="http://www.w3.org/2000/svg">
<g clip-path="url(#clip0_3291_5873)">
<path d="M10.4199 0C12.105 1.56671e-05 13.6305 0.683336 14.7354 1.78711C15.24 1.65177 15.7698 1.58009 16.3164 1.58008C19.6876 1.58008 22.4209 4.31341 22.4209 7.68457C22.4209 8.2312 22.3482 8.76096 22.2139 9.26562C23.3176 10.3704 24.0009 11.896 24.001 13.5811C24.001 16.4056 22.0828 18.7819 19.4775 19.4775C18.7809 22.0817 16.4045 24.001 13.5811 24.001C11.896 24.0009 10.3704 23.3176 9.26562 22.2139C8.76096 22.3492 8.2312 22.4209 7.68457 22.4209C4.31341 22.4209 1.58008 19.6876 1.58008 16.3164C1.58009 15.7698 1.65282 15.24 1.78711 14.7354C0.683336 13.6305 1.56673e-05 12.105 0 10.4199C0 7.59541 1.91821 5.21907 4.52344 4.52344C5.22012 1.91821 7.59541 0 10.4199 0ZM10.2178 9.375C9.71214 7.97051 8.40912 7.1188 7.19043 7.44434C5.89044 7.79268 5.17782 9.35097 5.59961 10.9248C5.60692 10.9499 5.61377 10.9759 5.62109 11.001L6.05176 12.6094C6.47351 14.1831 7.86905 15.1761 9.16895 14.8291C10.4689 14.4818 11.1815 12.9224 10.7598 11.3486L10.3281 9.74023C10.3218 9.71505 10.3159 9.68827 10.3086 9.66309L10.2178 9.375ZM17.3857 7.60547C16.8802 6.20075 15.5772 5.34822 14.3584 5.67383C13.0586 6.02223 12.346 7.58062 12.7676 9.1543C12.7749 9.17948 12.7817 9.20626 12.7891 9.23145L13.2207 10.8398C13.6426 12.4135 15.038 13.4059 16.3379 13.0586C17.6376 12.71 18.3495 11.1518 17.9277 9.57812L17.4971 7.96973C17.4908 7.94462 17.4839 7.91866 17.4766 7.89355L17.3857 7.60547ZM8.63867 10.9785C8.84214 10.9241 9.051 11.0446 9.10449 11.248C9.1577 11.4513 9.03815 11.6592 8.83496 11.7139C8.63151 11.7684 8.42284 11.6477 8.36816 11.4443C8.3136 11.2408 8.43512 11.032 8.63867 10.9785ZM6.94727 8.60449C7.30288 9.15942 7.9057 9.50754 8.56445 9.53809C8.0095 9.89375 7.66134 10.4974 7.63086 11.1562C7.27516 10.6013 6.67153 10.2531 6.0127 10.2227C6.56774 9.86697 6.91684 9.26341 6.94727 8.60449ZM15.8066 9.20801C16.0101 9.15349 16.2189 9.27407 16.2725 9.47754C16.327 9.68104 16.2064 9.88978 16.0029 9.94336C15.7994 9.99687 15.5906 9.87737 15.5371 9.67383C15.4836 9.47028 15.6031 9.26152 15.8066 9.20801ZM14.1152 6.83496C14.4709 7.38988 15.0746 7.73813 15.7334 7.76855C15.1784 8.12424 14.8302 8.72781 14.7998 9.38672C14.4442 8.83173 13.8405 8.48264 13.1816 8.45215C13.7364 8.09649 14.0847 7.49362 14.1152 6.83496Z" fill="black"/>
</g>
<defs>
<clipPath id="clip0_3291_5873">
<rect width="24" height="24" fill="white"/>
</clipPath>
</defs>
</svg>
