<svg width="14" height="14" viewBox="0 0 14 14" fill="none" xmlns="http://www.w3.org/2000/svg">
<path d="M3.49316 0.946289C2.96839 1.45956 2.56357 2.08253 2.30762 2.77051C2.05172 3.45859 1.95088 4.19524 2.0127 4.92676C2.21637 7.49788 4.64081 9.59062 6.83984 9.59082C8.88559 9.59082 9.68701 7.80455 9.48926 6.5918C9.4162 6.1466 9.22508 5.7288 8.93555 5.38281C9.30407 5.58111 9.66077 5.83605 9.99023 6.1416C10.8768 6.96696 11.4132 8.02491 11.499 9.11621C11.6898 11.5283 9.90474 13.9999 6.91992 14C5.93127 13.9999 4.88955 13.7487 4.01465 13.334C1.64227 12.214 0 9.79803 0 7.00098C6.89348e-05 4.41632 1.40315 2.15843 3.49316 0.946289ZM7.0791 0C8.06843 0 9.10996 0.252242 9.98438 0.666992C12.3585 1.78702 14 4.20199 14 6.99902C13.9999 9.58368 12.5968 11.8422 10.5068 13.0537C11.0317 12.5404 11.4374 11.9176 11.6934 11.2295C11.9493 10.5414 12.0491 9.80476 11.9873 9.07324C11.7836 6.50211 9.35919 4.40938 7.16016 4.40918C5.11441 4.40918 4.31299 6.19545 4.51074 7.4082C4.58382 7.85378 4.77574 8.27165 5.06641 8.61719C4.68358 8.41061 4.32875 8.15521 4.01074 7.8584C3.12428 7.03305 2.58792 5.97621 2.50098 4.88379C2.31024 2.47193 4.09468 0.000450201 7.0791 0Z" fill="#2F3640"/>
</svg>
