<?xml version="1.0" standalone="no"?><!DOCTYPE svg PUBLIC "-//W3C//DTD SVG 1.1//EN" "http://www.w3.org/Graphics/SVG/1.1/DTD/svg11.dtd"><svg t="1773451260222" class="icon" viewBox="0 0 1024 1024" version="1.1" xmlns="http://www.w3.org/2000/svg" p-id="1295" xmlns:xlink="http://www.w3.org/1999/xlink" width="200" height="200"><path d="M288.7936 986.13248l1.69472-2.31936c10.368-13.3632 25.2928-20.04992 44.77952-20.04992 10.95168 0 34.67776-1.36704 71.18336-4.10624 29.2096-1.82272 52.9408-1.82272 71.18848 0l2.7392-1.36704c56.58624-1.82784 99.4816-2.28352 128.68608-1.37216 51.10784-7.30112 83.05152-10.95168 95.83104-10.95168 21.90336 0 37.41696 2.7392 46.5408 8.21248 38.33856-9.12384 68.4544-20.07552 90.35776-32.85504a1314.38592 1314.38592 0 0 1-30.11584-36.96128c-12.77952-11.86304-26.4704-17.79712-41.07264-17.79712-40.15616 0-73.0112 5.93408-98.56512 17.79712-10.04032 0-23.27552 1.36704-39.70048 4.10624-19.16928 3.65056-31.9488 5.93408-38.33344 6.84544-62.05952 5.4784-142.83264 8.21248-242.31424 8.21248h-1.36704c61.14816-127.7696 125.4912-241.39776 193.024-340.87936 32.86016-43.80672 58.41408-77.11744 76.66688-99.93728 42.89536-60.2368 76.20608-104.96 99.93728-134.15936 44.7232-57.4976 82.59584-112.26112 113.62816-164.28032-15.5136-41.07264-26.92608-64.34304-34.2272-69.82144-0.91136-1.82272-2.2784-5.92896-4.10624-12.31872-0.91136-3.65056-3.65056-7.7568-8.21248-12.32384l-1.37216-4.10624v-5.4784l-13.68576-6.84032 4.10624-9.58464-2.7392 2.7392c-5.4784-5.4784-9.58464-9.12896-12.31872-10.9568l-2.7392-5.47328v-2.73408l-5.4784-1.37216 1.37216-10.95168-17.79712-13.69088c-48.3328-0.82944-79.54432-1.28-93.63968-1.3568h-10.4448c-25.68704 0.07168-68.11136 0.52736-127.27808 1.3568H372.22912c-20.08064 6.38976-35.59424 14.14656-46.54592 23.27552a47.67744 47.67744 0 0 1-9.58464 9.58464 30.1056 30.1056 0 0 1-12.31872 5.4784l-4.10624 2.73408-2.7392 8.21248c-15.5136 3.65056-31.71328 13.92128-48.59904 30.80192-16.88576 16.88576-25.32864 32.62976-25.32864 47.232 0 5.4784 0.91136 11.40736 2.7392 17.79712 31.0272 7.30112 54.7584 9.58464 71.18848 6.84544 38.33344 10.0352 61.14816 15.05792 68.44928 15.05792 1.82784 0 11.40736-1.36704 28.7488-4.10624 8.21248 1.82272 25.55392 1.36704 52.0192-1.37216 26.4704-2.73408 42.4448-5.92896 47.91808-9.57952l20.5312 2.7392 30.12096-15.06304 16.43008 2.7392v-4.10624l2.73408-1.36704c3.65056 0 7.76192 0.45568 12.32384 1.36704 1.82272-0.91136 11.40736-0.91136 28.7488 0l15.05792 6.84544C543.35488 270.592 486.31296 364.14464 448.89088 427.1104c-31.94368 53.84704-55.21408 94.0032-69.81632 120.4736-43.80672 63.88736-72.55552 108.14976-86.2464 132.79232-45.63456 93.09184-78.4896 163.82464-98.57024 212.19328 0.91136 0 0.91136 1.37216 0 4.10624l-2.7392 5.4784c-0.91136 1.82272-2.5088 4.56192-4.7872 8.21248-2.28352 3.65056-2.9696 9.12896-2.05312 16.43008l-5.4784-5.4784v27.38176c4.56192 6.38976 14.60224 9.80992 30.11584 10.2656 15.5136 0.4608 26.0096 2.9696 31.488 7.5264l-2.7392 10.9568 8.2176-5.4784h1.36704l2.7392-1.36704c1.82272 0 3.19488 2.28352 4.10624 6.84544l-8.21248 10.9568c11.86304-11.86816 20.5312-17.80224 26.0096-17.80224 1.82784 0 4.10624 0.4608 6.84544 1.36704l-24.64256 34.2272c16.43008-16.43008 25.55392-25.09824 27.38176-26.0096l5.4784-6.84544 2.73408-1.37216 1.36704 6.84544-2.6624 7.31136z m14.98624-82.60608c42.89536-93.09184 117.7344-224.05632 224.512-392.89856l4.11136 5.4784a441.29792 441.29792 0 0 0 14.93504-18.46784l1.59232-2.176-4.64896 7.18848c-20.0704 30.83264-36.3264 54.99904-48.77312 72.4992l-2.80576 3.92704c-37.42208 65.71008-64.34304 115.45088-80.77312 149.21728-44.71808 71.18848-69.36064 114.53952-73.92768 130.05824-10.0352 27.37664-21.44768 42.43968-34.22208 45.17376z m60.2368-277.90336c14.60224-39.2448 34.22208-77.57824 58.86464-114.9952l2.7392 2.73408-61.60384 112.26112z m0 12.31872l36.96128-72.55552 2.7392 1.36704-39.70048 71.18848z m-56.13056 97.19808c14.60224-34.67776 28.7488-63.88736 42.43968-87.61344l1.36704 2.7392-43.80672 84.87424z m-105.41056 182.07744h-6.84544c44.71808-84.87936 79.85664-145.56672 105.41056-182.07744-59.32544 104.04352-92.18048 164.736-98.56512 182.07744z m117.72928-69.81632v6.84544l-19.1488 21.89824 19.1488-28.74368z m-97.19808 49.28l9.58464 1.37216-23.25504 16.4096 13.6704-17.78176z m65.78688 89.4464l-0.31744 0.44544c-6.5024 9.50784-10.98752 21.98016-13.44512 37.4272l13.76256-37.86752z m74.58816-282.60864l0.29184-0.54784c13.0048-25.09824 29.5424-54.07744 49.62304-86.93248l-24.63744 31.488c29.20448-53.84704 52.0192-94.0032 68.44928-120.4736 3.65056-7.30112 10.0352-11.86304 19.16416-13.69088l26.0096-36.96128c-28.29312 49.28512-50.19648 85.79072-65.71008 109.5168-29.20448 57.4976-51.56864 99.9424-67.08224 127.31904-18.2528 33.77152-31.94368 58.86976-41.06752 75.29472-36.5056 67.53792-55.2192 102.2208-56.13056 104.04352a55.26016 55.26016 0 0 1-17.79712 17.79712h-8.21248c22.81472-52.0192 44.2624-95.37024 64.34304-130.05312 15.5136-27.38176 27.83232-47.4624 36.96128-60.2368-7.30112 23.7312-13.69088 41.07264-19.16416 52.0192l6.84544-5.47328c5.43744-15.89248 13.84448-35.05152 25.22624-57.46176l0.72704-1.43872 9.64096-6.8096-1.37216-2.7392-6.10816 5.34016z" fill="#2c2c2c" p-id="1296"></path></svg>