<svg width="1280" height="720" viewBox="0 0 1280 720" fill="none" xmlns="http://www.w3.org/2000/svg">
  <defs>
    <linearGradient id="bg" x1="160" y1="80" x2="1120" y2="640" gradientUnits="userSpaceOnUse">
      <stop stop-color="#F6F4EF"/>
      <stop offset="1" stop-color="#E9EEF6"/>
    </linearGradient>
    <linearGradient id="card" x1="320" y1="150" x2="960" y2="570" gradientUnits="userSpaceOnUse">
      <stop stop-color="#FFFFFF" stop-opacity="0.96"/>
      <stop offset="1" stop-color="#F9FBFF" stop-opacity="0.92"/>
    </linearGradient>
    <filter id="shadow" x="204" y="94" width="872" height="532" filterUnits="userSpaceOnUse" color-interpolation-filters="sRGB">
      <feFlood flood-opacity="0" result="BackgroundImageFix"/>
      <feColorMatrix in="SourceAlpha" type="matrix" values="0 0 0 0 0 0 0 0 0 0 0 0 0 0 0 0 0 0 127 0" result="hardAlpha"/>
      <feOffset dy="18"/>
      <feGaussianBlur stdDeviation="28"/>
      <feComposite in2="hardAlpha" operator="out"/>
      <feColorMatrix type="matrix" values="0 0 0 0 0.0588235 0 0 0 0 0.0901961 0 0 0 0 0.164706 0 0 0 0.14 0"/>
      <feBlend mode="normal" in2="BackgroundImageFix" result="effect1_dropShadow_1_1"/>
      <feBlend mode="normal" in="SourceGraphic" in2="effect1_dropShadow_1_1" result="shape"/>
    </filter>
  </defs>
  <rect width="1280" height="720" rx="36" fill="url(#bg)"/>
  <circle cx="180" cy="132" r="84" fill="#D8E2F3" fill-opacity="0.55"/>
  <circle cx="1102" cy="596" r="112" fill="#E9D7C3" fill-opacity="0.48"/>
  <g filter="url(#shadow)">
    <rect x="260" y="132" width="760" height="420" rx="28" fill="url(#card)"/>
    <rect x="260.75" y="132.75" width="758.5" height="418.5" rx="27.25" stroke="#0F172A" stroke-opacity="0.08" stroke-width="1.5"/>
  </g>
  <rect x="308" y="182" width="216" height="24" rx="12" fill="#EEF2F8"/>
  <rect x="308" y="228" width="402" height="22" rx="11" fill="#DDE6F2"/>
  <rect x="308" y="266" width="328" height="22" rx="11" fill="#E8EEF7"/>
  <rect x="308" y="346" width="664" height="126" rx="22" fill="#F4F7FB"/>
  <circle cx="640" cy="345" r="74" fill="#111827"/>
  <path d="M620 306.2C620 300.767 625.922 297.404 630.589 300.216L692.566 337.554C697.07 340.268 697.07 346.732 692.566 349.446L630.589 386.784C625.922 389.596 620 386.233 620 380.8V306.2Z" fill="white"/>
  <text x="640" y="506" text-anchor="middle" fill="#0F172A" font-family="Segoe UI, Arial, sans-serif" font-size="40" font-weight="700">Muses Canvas Demo</text>
  <text x="640" y="548" text-anchor="middle" fill="#475569" font-family="Segoe UI, Arial, sans-serif" font-size="24" font-weight="500">Click to watch the project demo video</text>
</svg>
