<svg xmlns="http://www.w3.org/2000/svg" direction="ltr" width="1024" height="1024" viewBox="-1747.733981237653 -638.0698188104889 1024 1024" stroke-linecap="round" stroke-linejoin="round" data-color-mode="light" class="tl-container tl-theme__force-sRGB tl-theme__light" style="background-color: transparent;"><defs/><g transform="matrix(1, 0, 0, 1, -1747.734, -638.0698)" opacity="1"><g transform="scale(1, 1)"><g>
<path xmlns="http://www.w3.org/2000/svg" fill="#010608" d="   M 313.73 251.77   A 0.43 0.43 0.0 0 1 313.01 252.21   Q 305.80 243.37 300.08 233.95   Q 293.44 223.01 287.61 210.21   Q 281.51 196.82 286.52 183.26   Q 288.53 177.81 292.85 170.59   Q 296.53 164.45 306.03 151.05   C 314.40 139.22 327.16 128.51 340.70 122.75   Q 355.26 116.56 370.76 116.50   Q 384.46 116.45 396.05 119.74   Q 399.75 120.80 402.89 122.19   A 0.34 0.33 -32.7 0 1 402.75 122.83   Q 393.16 122.78 381.69 124.48   C 370.63 126.12 360.38 130.15 350.70 135.59   Q 341.74 140.63 334.48 148.17   Q 322.40 160.72 316.59 175.91   Q 314.04 182.60 311.82 187.70   C 307.80 196.94 304.60 208.50 304.98 218.94   C 305.28 227.36 306.45 235.48 309.95 243.30   Q 312.61 249.23 313.73 251.77   Z"/>
<path xmlns="http://www.w3.org/2000/svg" fill="#010608" d="   M 321.65 122.68   Q 306.82 125.78 294.92 134.11   Q 292.11 136.08 284.93 142.66   Q 278.49 148.56 272.65 159.86   Q 265.45 173.80 267.38 191.48   C 267.84 195.74 270.56 202.58 271.98 205.62   A 6.50 6.10 16.6 0 0 272.78 206.99   L 275.90 211.10   A 0.34 0.34 0.0 0 1 275.49 211.62   Q 272.52 210.31 270.11 207.64   Q 261.03 197.59 258.46 185.64   Q 257.19 179.74 257.91 170.44   Q 258.48 163.12 261.99 155.86   Q 269.91 139.50 286.67 130.67   C 290.83 128.47 296.79 125.99 301.60 124.86   Q 309.52 122.99 317.99 122.06   Q 320.07 121.84 321.67 122.31   A 0.19 0.19 0.0 0 1 321.65 122.68   Z"/>
<path xmlns="http://www.w3.org/2000/svg" fill="#010608" d="   M 318.75 177.82   A 0.45 0.44 44.6 0 1 318.08 177.82   L 318.04 177.77   A 0.23 0.23 0.0 0 1 318.11 177.42   Q 319.01 176.96 320.38 174.34   Q 326.94 161.84 336.47 152.39   C 339.78 149.10 344.06 145.26 347.30 143.03   Q 361.87 133.02 378.65 129.46   Q 382.83 128.57 390.08 127.71   Q 394.92 127.13 398.44 127.66   C 401.73 128.15 405.69 127.84 409.53 128.63   Q 427.99 132.41 441.89 145.36   C 447.68 150.75 452.45 156.95 458.37 165.04   C 460.35 167.76 463.17 169.82 465.46 172.31   A 0.34 0.34 0.0 0 1 465.11 172.86   Q 462.97 172.20 461.16 171.10   Q 450.84 164.79 442.84 159.72   Q 431.34 152.45 423.82 149.62   Q 412.96 145.54 401.51 144.05   Q 399.35 143.77 390.16 143.79   Q 384.36 143.81 378.87 144.72   Q 367.95 146.55 355.58 151.62   Q 333.72 160.57 318.75 177.82   Z"/>
<path xmlns="http://www.w3.org/2000/svg" fill="#010608" d="   M 737.63 317.47   Q 737.18 317.57 734.22 319.01   C 729.09 321.51 722.47 322.51 717.50 321.97   Q 707.91 320.95 700.09 320.57   C 688.94 320.02 675.77 323.87 665.70 328.70   Q 656.94 332.91 651.97 335.46   Q 643.51 339.82 637.95 341.51   Q 621.01 346.66 602.94 344.14   Q 591.16 342.50 580.57 338.91   Q 573.94 336.66 555.49 328.78   Q 548.93 325.97 539.85 324.17   C 528.10 321.84 515.86 323.44 504.24 326.73   C 499.09 328.18 493.06 330.31 487.18 331.39   Q 467.26 335.02 446.59 326.25   Q 429.43 318.97 423.89 316.04   C 414.50 311.08 411.40 309.93 402.96 305.61   C 392.76 300.39 382.43 295.84 362.47 286.77   C 358.32 284.88 353.06 281.92 348.01 279.11   C 344.58 277.21 342.08 275.34 339.15 273.17   C 337.61 272.03 337.02 270.46 335.10 270.02   A 0.38 0.37 -45.1 0 1 335.10 269.29   L 336.10 269.06   A 3.95 3.82 -49.8 0 1 337.17 268.95   Q 346.47 269.30 349.30 268.80   Q 350.56 268.57 366.34 265.05   Q 370.74 264.07 375.75 263.55   C 384.35 262.67 390.69 262.21 398.47 263.30   Q 414.67 265.57 428.74 272.02   Q 437.15 275.87 444.13 280.13   C 450.41 283.95 455.96 286.45 462.11 289.71   Q 466.48 292.03 470.80 293.68   Q 479.18 296.88 479.75 297.05   Q 501.29 303.42 522.35 297.77   C 527.64 296.36 531.18 295.56 535.85 293.88   Q 550.46 288.61 552.26 288.02   Q 557.61 286.27 566.37 284.36   Q 573.60 282.79 580.83 282.85   Q 600.97 283.04 618.98 290.56   C 630.53 295.38 637.98 298.61 645.87 300.78   C 656.47 303.70 666.96 305.11 677.00 304.00   Q 682.53 303.39 692.27 301.06   Q 701.16 298.94 706.75 298.71   Q 716.39 298.31 724.00 299.61   C 728.30 300.34 731.70 301.75 734.94 303.58   Q 735.86 304.09 737.75 304.44   A 0.38 0.38 0.0 0 0 738.07 303.78   Q 727.77 294.72 713.97 293.86   Q 713.07 293.81 711.50 293.29   A 3.22 3.18 -35.3 0 0 710.47 293.12   Q 697.70 293.08 692.75 294.08   Q 680.13 296.62 666.50 296.05   Q 660.97 295.82 655.71 294.50   Q 641.85 291.02 628.71 283.79   Q 617.78 277.77 602.49 266.02   C 595.14 260.37 589.12 256.20 580.89 250.89   C 563.38 239.59 544.78 236.06 524.44 238.17   A 0.46 0.46 0.0 0 1 524.22 237.29   C 536.39 232.40 548.77 225.17 560.57 220.58   Q 576.56 214.36 592.50 213.16   C 601.37 212.50 611.01 213.44 620.60 215.55   Q 643.83 220.65 667.04 230.43   Q 673.60 233.20 684.48 238.73   Q 691.82 242.46 701.80 247.29   A 0.36 0.36 0.0 0 0 702.19 246.68   Q 693.20 239.28 682.01 233.50   Q 665.70 225.08 665.36 224.91   Q 658.36 221.46 643.17 215.54   Q 631.38 210.95 620.04 208.49   Q 619.13 208.30 611.84 207.03   Q 606.72 206.14 603.57 205.94   Q 590.46 205.10 578.45 207.44   C 566.15 209.84 553.99 215.95 543.05 221.87   C 529.63 229.14 516.59 237.59 502.15 241.53   Q 492.72 244.11 484.81 244.82   Q 476.83 245.53 466.51 243.90   Q 462.80 243.32 453.91 241.60   A 0.26 0.26 0.0 0 0 453.60 241.82   L 453.56 242.07   A 0.09 0.08 -80.3 0 0 453.61 242.15   Q 463.80 245.34 466.63 245.87   Q 471.73 246.82 482.84 247.60   Q 485.01 247.76 490.15 247.38   Q 497.11 246.86 497.44 246.82   Q 502.44 246.30 509.38 244.40   Q 513.84 243.19 524.73 242.20   Q 547.44 240.15 566.33 251.20   C 570.58 253.69 575.25 256.43 579.68 259.58   Q 583.00 261.94 595.50 271.39   C 601.30 275.78 608.72 280.57 614.60 284.55   A 0.17 0.17 0.0 0 1 614.46 284.85   Q 606.22 282.45 599.09 281.45   Q 586.11 279.63 579.10 280.16   Q 576.72 280.34 570.38 280.95   Q 565.57 281.41 562.45 282.26   Q 561.53 282.51 557.24 283.50   C 551.96 284.71 547.50 286.49 541.51 288.73   C 535.92 290.82 531.41 292.11 525.33 293.88   C 514.94 296.90 504.00 297.73 493.05 296.85   Q 490.32 296.63 480.14 293.63   Q 478.08 293.02 469.88 288.78   Q 464.76 286.12 460.02 283.18   C 448.70 276.18 439.63 270.53 428.34 265.70   Q 408.46 257.17 386.64 259.42   Q 377.18 260.39 360.98 263.81   Q 357.84 264.48 351.91 265.69   C 343.74 267.36 334.68 266.75 328.55 259.85   Q 321.23 251.60 317.68 244.32   Q 310.61 229.77 312.34 213.82   C 315.37 186.00 341.24 160.35 368.51 154.97   C 380.44 152.62 394.73 153.27 406.74 156.54   Q 418.02 159.62 428.65 165.39   Q 445.67 174.64 462.74 184.49   A 0.45 0.45 0.0 0 1 462.74 185.27   Q 456.77 188.69 447.34 193.78   Q 429.27 203.53 408.05 208.00   A 0.21 0.21 0.0 0 0 407.88 208.24   L 407.93 208.53   A 0.06 0.06 0.0 0 0 407.99 208.58   Q 424.15 207.65 432.73 205.71   Q 443.68 203.23 456.03 197.50   Q 466.89 192.45 479.20 184.19   Q 479.81 183.79 489.57 177.89   Q 495.97 174.03 500.20 172.05   Q 521.94 161.90 539.21 158.50   Q 562.68 153.89 585.99 157.15   Q 597.83 158.81 611.42 162.41   Q 631.68 167.78 651.35 178.83   Q 665.17 186.60 676.52 197.12   Q 678.48 198.93 684.13 205.51   Q 687.37 209.27 691.07 214.46   Q 701.63 229.25 705.59 235.23   Q 709.30 240.83 711.05 246.71   A 3.09 3.08 89.8 0 0 713.14 248.79   Q 717.66 250.10 727.74 254.03   Q 736.38 257.40 743.93 262.87   C 754.38 270.43 759.30 281.48 757.74 294.44   A 0.27 0.27 0.0 0 0 758.15 294.70   C 764.07 290.92 769.29 288.40 776.70 290.11   Q 789.33 293.02 792.53 305.15   Q 792.88 306.49 793.25 307.81   C 795.27 315.15 794.18 325.00 792.39 332.37   C 791.67 335.31 790.25 337.73 789.23 341.02   A 1.79 1.78 -42.5 0 0 789.19 341.93   C 790.00 345.74 792.05 350.05 793.06 354.16   Q 797.28 371.40 791.22 388.25   C 785.57 403.94 771.37 415.90 755.82 421.05   C 747.79 423.71 740.30 426.05 733.45 431.23   Q 729.20 434.44 727.53 435.53   Q 725.04 437.18 719.14 442.86   C 715.57 446.29 712.40 452.36 711.89 457.74   C 711.67 460.00 710.88 462.15 710.60 464.89   Q 709.34 477.31 711.40 488.02   Q 712.58 494.18 712.97 499.30   Q 713.57 507.08 706.39 510.83   Q 704.72 511.70 703.26 511.80   Q 696.65 512.22 689.37 511.13   Q 686.06 510.64 683.43 512.19   A 1.64 1.62 87.0 0 0 682.79 512.91   C 680.39 518.37 680.95 522.76 681.14 527.04   A 1.78 1.74 -31.9 0 1 680.91 527.98   C 677.92 533.18 673.62 534.47 667.78 536.14   A 2.22 2.22 0.0 0 0 666.24 538.79   Q 666.73 540.83 666.18 543.78   A 1.78 1.77 -17.4 0 1 665.69 544.71   Q 661.67 548.76 659.49 549.51   Q 652.78 551.79 649.71 552.65   A 4.72 4.72 0.0 0 0 646.57 555.48   Q 644.32 561.24 642.38 567.62   C 638.76 579.47 630.24 585.89 617.52 581.90   Q 610.09 579.57 597.52 573.21   Q 587.93 568.36 582.21 566.05   Q 572.25 562.03 565.85 562.79   C 555.37 564.05 551.00 573.70 550.30 583.56   Q 549.97 588.27 550.94 593.52   C 554.28 611.50 566.66 628.75 581.31 639.64   Q 596.81 651.18 615.29 656.94   C 627.90 660.87 641.11 662.95 654.54 664.16   Q 663.67 664.98 678.49 665.24   C 702.29 665.66 721.66 666.02 742.54 670.72   Q 758.67 674.35 771.74 683.78   C 776.06 686.90 779.50 690.91 783.08 694.55   Q 785.37 696.86 787.08 699.26   Q 800.31 717.75 805.16 739.17   Q 808.25 752.79 808.70 757.02   Q 809.18 761.54 809.39 763.02   C 810.10 767.87 809.81 773.21 810.21 777.01   Q 811.03 784.91 811.06 791.84   A 0.03 0.02 -31.7 0 1 811.05 791.86   L 810.48 792.09   A 0.28 0.27 76.9 0 1 810.11 791.85   Q 809.87 788.93 807.35 774.85   Q 804.42 758.38 799.79 745.15   Q 798.45 741.31 794.40 732.08   C 787.26 715.81 776.38 699.69 761.61 690.27   Q 748.13 681.67 733.71 677.20   Q 722.99 673.87 709.87 672.01   Q 703.14 671.05 698.09 670.94   C 692.77 670.82 687.61 670.15 682.30 670.13   Q 662.37 670.06 646.97 670.03   Q 633.84 670.00 624.57 669.28   Q 612.10 668.32 602.27 666.91   Q 588.87 664.99 575.44 660.31   C 559.08 654.59 545.33 643.72 537.74 628.01   C 534.93 622.19 532.62 616.26 531.33 609.86   Q 529.27 599.62 529.53 588.76   Q 529.59 586.13 530.63 580.52   Q 531.60 575.29 532.63 572.45   Q 537.54 558.89 548.94 549.43   Q 552.99 546.06 551.70 541.03   C 550.65 536.93 549.31 533.01 547.06 528.43   Q 536.30 506.55 529.00 491.49   A 0.22 0.22 0.0 0 1 529.36 491.25   C 531.86 494.07 533.83 497.06 536.45 500.09   Q 545.51 510.60 557.78 525.04   Q 573.10 543.07 591.91 558.34   Q 596.79 562.30 602.03 565.99   Q 612.57 573.42 621.82 574.84   Q 630.08 576.12 635.09 569.49   C 637.57 566.22 638.32 559.79 638.58 555.56   Q 638.86 550.91 640.22 548.63   Q 642.75 544.38 646.79 542.81   A 2.39 2.36 3.1 0 0 648.01 541.73   Q 648.49 540.83 649.06 540.68   A 0.41 0.41 0.0 0 0 649.30 540.08   L 647.54 537.03   A 1.64 1.58 -61.5 0 1 647.33 536.27   Q 647.26 532.66 645.08 529.81   A 0.22 0.22 0.0 0 1 645.31 529.46   Q 650.51 530.76 653.68 532.60   C 654.38 533.01 655.22 532.59 655.99 533.39   Q 656.73 534.16 657.32 533.44   A 0.75 0.74 31.0 0 1 658.18 533.23   Q 658.73 533.45 659.92 533.37   A 0.41 0.41 0.0 0 0 660.23 532.73   C 658.80 530.71 656.59 531.33 655.36 529.90   A 0.81 0.80 73.1 0 0 654.86 529.63   L 648.58 528.76   A 0.78 0.75 72.8 0 1 648.11 528.50   Q 647.43 527.72 646.03 527.92   A 0.84 0.81 -30.3 0 1 645.42 527.77   L 638.91 522.86   A 3.94 3.31 83.7 0 1 638.27 522.25   C 636.24 519.82 633.31 516.96 635.64 514.10   C 637.32 512.04 640.72 514.09 642.88 515.07   Q 647.49 517.17 651.97 517.43   A 3.71 3.43 -47.3 0 0 652.85 517.36   Q 654.57 517.02 665.75 515.97   Q 669.07 515.66 670.82 516.56   A 0.95 0.95 0.0 0 0 671.84 516.47   Q 672.73 515.79 674.37 516.80   A 0.55 0.55 0.0 0 0 675.14 516.59   Q 676.76 513.57 677.09 512.03   Q 678.23 506.79 683.54 506.10   Q 684.81 505.93 689.73 504.26   Q 691.87 503.53 694.89 503.41   Q 698.72 503.27 700.01 502.96   Q 706.29 501.50 705.94 493.27   Q 705.83 490.67 705.44 486.65   Q 704.82 480.37 704.81 480.34   Q 704.61 479.85 704.20 470.27   Q 703.30 449.46 712.86 431.94   C 716.03 426.14 720.13 421.00 725.12 414.35   Q 727.55 411.12 729.60 407.04   Q 738.98 388.45 744.16 367.63   Q 747.15 355.65 747.96 342.75   Q 748.59 332.64 747.25 323.85   C 746.86 321.28 746.03 319.33 745.76 316.62   A 0.47 0.47 0.0 0 0 744.88 316.43   C 737.70 328.93 724.53 334.90 710.33 334.71   Q 706.81 334.66 696.30 335.61   Q 689.13 336.25 684.14 338.14   Q 674.70 341.73 667.00 345.52   C 658.13 349.89 646.14 357.77 636.44 361.63   Q 614.65 370.32 595.48 372.60   Q 578.68 374.61 564.49 374.21   Q 543.40 373.63 535.28 374.31   Q 533.27 374.48 526.55 375.92   C 508.98 379.68 495.92 392.55 483.20 404.39   C 473.30 413.60 461.95 422.30 448.28 423.88   A 0.62 0.62 0.0 0 1 447.96 422.69   C 455.21 419.59 460.02 415.05 466.08 409.59   Q 469.20 406.78 473.33 401.84   Q 481.85 391.66 481.88 391.63   Q 488.69 382.62 490.79 379.87   Q 496.49 372.40 500.63 368.97   Q 508.86 362.13 518.32 357.63   C 530.18 351.99 543.69 350.99 557.27 352.12   Q 562.17 352.52 571.51 354.53   C 582.24 356.85 593.86 357.74 603.44 356.81   Q 613.82 355.81 629.69 350.69   Q 635.41 348.85 644.78 343.89   Q 654.00 339.00 662.86 335.34   Q 678.69 328.81 694.49 327.44   Q 698.19 327.12 711.24 327.15   C 721.08 327.17 730.54 324.73 737.78 317.75   A 0.17 0.17 0.0 0 0 737.63 317.47   Z   M 459.48 211.04   Q 461.29 211.11 462.09 210.84   Q 472.53 207.44 484.65 200.92   Q 501.96 191.61 519.94 185.48   Q 539.94 178.67 563.42 180.94   C 566.23 181.21 569.66 182.02 573.53 182.71   Q 577.15 183.36 581.01 184.46   C 585.59 185.77 590.85 187.02 594.91 188.36   Q 605.59 191.86 620.02 196.52   Q 628.38 199.21 638.60 203.70   A 0.37 0.37 0.0 0 0 638.96 203.06   C 634.64 200.09 628.64 197.65 624.43 195.69   Q 620.68 193.95 617.71 192.90   Q 593.40 184.36 578.37 180.66   Q 563.24 176.94 551.23 176.14   Q 541.56 175.50 534.75 176.09   Q 525.69 176.87 516.89 180.18   Q 500.71 186.26 485.68 196.66   Q 480.15 200.49 464.68 208.57   A 1.07 0.96 -62.2 0 1 464.41 208.67   Q 461.65 209.40 459.39 210.65   A 0.21 0.21 0.0 0 0 459.48 211.04   Z   M 621.52 178.34   Q 623.26 178.57 624.07 179.48   A 3.20 3.19 80.2 0 0 625.24 180.31   Q 642.38 187.54 656.77 198.74   Q 665.79 205.76 670.02 211.00   C 673.82 215.71 675.86 219.21 679.68 221.70   A 0.27 0.27 0.0 0 0 680.09 221.40   C 678.17 214.07 671.72 206.56 665.81 201.69   Q 650.58 189.11 631.84 181.42   Q 628.68 180.12 624.59 179.00   A 2.12 1.94 67.5 0 1 623.97 178.71   Q 622.23 177.53 621.46 177.79   A 0.28 0.28 0.0 0 0 621.52 178.34   Z   M 388.0313 184.5148   A 0.44 0.25 -162.1 0 0 388.3732 184.8879   A 0.44 0.25 -162.1 0 0 388.8687 184.7852   A 0.44 0.25 -162.1 0 0 388.5268 184.4121   A 0.44 0.25 -162.1 0 0 388.0313 184.5148   Z   M 394.5414 185.2926   A 0.61 0.45 -168.9 0 0 395.0534 185.8516   A 0.61 0.45 -168.9 0 0 395.7386 185.5274   A 0.61 0.45 -168.9 0 0 395.2266 184.9684   A 0.61 0.45 -168.9 0 0 394.5414 185.2926   Z   M 344.1866 212.6982   A 0.59 0.47 -188.6 0 0 344.8403 213.0747   A 0.59 0.47 -188.6 0 0 345.3534 212.5218   A 0.59 0.47 -188.6 0 0 344.6997 212.1453   A 0.59 0.47 -188.6 0 0 344.1866 212.6982   Z   M 452.59 242.01   Q 452.78 242.04 453.03 241.95   A 0.06 0.06 0.0 0 0 453.07 241.87   Q 453.05 241.83 452.64 241.79   A 0.12 0.11 -34.9 0 0 452.59 242.01   Z   M 676.01 263.10   Q 690.39 262.66 692.51 262.79   Q 708.34 263.71 718.41 268.13   Q 731.67 273.95 741.30 287.12   Q 743.55 290.20 744.93 294.23   A 0.47 0.47 0.0 0 0 745.85 294.08   C 746.08 272.83 723.57 261.35 705.51 260.13   Q 693.41 259.30 682.15 260.97   A 4.35 4.27 -61.0 0 0 680.94 261.33   Q 679.11 262.17 675.99 262.92   A 0.09 0.09 0.0 0 0 676.01 263.10   Z   M 770.20 296.66   L 780.00 299.84   A 0.12 0.12 0.0 0 0 780.15 299.77   L 780.17 299.72   A 5.12 1.37 18.0 0 0 775.72 296.83   L 775.44 296.74   A 5.12 1.37 18.0 0 0 770.14 296.46   L 770.13 296.51   A 0.12 0.12 0.0 0 0 770.20 296.66   Z   M 784.29 332.64   Q 785.46 329.37 785.52 327.51   C 785.81 318.93 784.49 309.21 776.61 304.47   Q 775.05 303.54 768.11 300.98   A 3.63 3.43 -31.7 0 0 767.09 300.77   C 761.74 300.54 757.07 300.76 754.50 305.47   A 0.22 0.21 21.8 0 0 754.64 305.78   Q 769.96 309.52 778.19 323.06   Q 780.64 327.09 783.77 332.68   A 0.29 0.29 0.0 0 0 784.29 332.64   Z   M 753.07 414.31   Q 753.69 414.37 754.20 414.10   Q 759.04 411.57 762.56 409.98   A 5.02 4.43 10.7 0 0 763.45 409.45   Q 767.67 406.34 771.18 403.23   C 785.44 390.57 789.66 370.01 785.64 352.04   Q 785.11 349.69 783.44 345.69   C 780.93 339.67 778.52 334.13 773.71 330.20   A 0.25 0.25 0.0 0 0 773.35 330.53   C 778.14 337.27 780.88 346.30 782.25 354.50   C 783.43 361.57 782.78 367.03 781.52 373.72   Q 780.79 377.59 779.89 380.13   Q 775.60 392.07 766.15 401.92   Q 759.10 409.27 752.93 413.76   A 0.30 0.30 0.0 0 0 753.07 414.31   Z   M 759.54 337.59   Q 759.37 338.44 759.46 339.00   Q 761.99 355.05 760.97 367.76   Q 759.83 381.88 753.90 394.69   Q 751.06 400.82 746.63 405.54   A 0.20 0.20 0.0 0 0 746.87 405.85   C 752.47 402.69 755.62 398.33 759.13 392.56   Q 762.57 386.89 763.80 380.53   Q 766.52 366.47 763.87 352.02   Q 762.70 345.63 761.42 340.85   Q 761.15 339.81 759.92 337.53   A 0.21 0.20 -53.8 0 0 759.54 337.59   Z"/>
<path xmlns="http://www.w3.org/2000/svg" fill="#010608" d="   M 374.45 396.54   Q 372.30 399.10 370.43 401.73   Q 369.16 403.52 366.01 406.21   Q 353.47 416.91 337.52 421.04   Q 335.60 421.53 332.80 422.43   Q 329.92 423.34 326.84 423.59   A 0.39 0.38 -58.9 0 1 326.66 422.85   Q 335.05 419.21 343.98 413.19   Q 347.80 410.61 350.25 407.98   Q 354.96 402.93 355.57 401.80   Q 357.97 397.34 358.07 397.16   A 0.22 0.21 30.3 0 0 357.99 396.87   A 0.19 0.19 0.0 0 0 357.74 396.92   Q 355.73 399.84 355.28 400.30   Q 344.07 411.58 331.02 416.29   Q 315.93 421.73 308.21 423.87   Q 301.14 425.83 294.03 430.07   Q 287.16 434.17 283.31 440.95   Q 277.39 451.37 282.02 464.51   Q 284.24 470.80 287.15 473.89   Q 292.51 479.59 300.03 484.97   C 309.23 491.55 321.13 503.74 322.16 515.44   C 322.94 524.22 321.41 532.67 314.84 538.92   Q 306.06 547.27 293.75 550.00   C 289.65 550.91 284.85 552.00 280.71 552.26   Q 270.00 552.94 266.30 553.33   Q 256.49 554.36 246.45 557.93   Q 233.60 562.49 226.34 574.08   Q 224.59 576.87 223.97 579.38   Q 220.42 593.79 228.39 604.91   A 0.31 0.31 0.0 0 1 227.95 605.33   C 216.20 595.96 215.45 580.77 222.12 568.08   C 226.66 559.45 236.16 553.18 245.32 550.12   C 249.23 548.82 254.69 547.30 259.71 547.02   Q 268.48 546.51 279.51 545.80   C 291.26 545.04 301.50 541.36 309.57 533.09   C 314.68 527.86 315.84 522.10 315.10 515.09   C 314.16 506.08 307.47 499.45 299.94 495.01   C 288.38 488.20 276.44 482.20 270.39 470.85   Q 265.59 461.84 265.29 451.75   Q 265.21 449.22 265.78 443.97   Q 266.27 439.57 267.67 436.45   C 273.42 423.73 286.40 418.44 299.93 415.58   Q 307.01 414.08 314.61 411.80   Q 317.12 411.05 319.64 409.72   Q 324.29 407.27 324.43 407.18   Q 336.38 399.59 340.63 388.85   Q 343.70 381.09 340.99 372.75   C 339.10 366.93 335.77 364.20 331.14 360.73   Q 329.51 359.51 327.35 360.34   Q 315.15 365.00 309.84 365.94   Q 300.11 367.67 291.55 367.27   Q 257.29 365.68 229.50 344.21   C 213.13 331.55 200.07 313.43 197.36 292.72   Q 196.51 286.30 197.09 278.26   Q 197.62 271.00 200.33 263.24   C 205.46 248.54 219.76 234.41 232.52 227.27   C 239.78 223.21 250.63 219.63 260.57 218.39   Q 264.13 217.95 268.72 217.26   A 0.26 0.26 0.0 0 1 268.87 217.75   C 260.08 222.04 251.60 226.94 246.10 235.12   Q 238.29 246.74 237.40 260.37   C 237.16 263.98 237.83 268.71 238.38 271.88   Q 239.37 277.60 242.41 284.25   C 244.00 287.73 246.73 290.78 249.09 294.44   A 7.22 7.13 -84.4 0 0 250.03 295.60   Q 256.03 301.61 265.22 304.92   A 0.24 0.23 -68.0 0 0 265.52 304.79   L 265.65 304.49   A 0.12 0.12 0.0 0 0 265.60 304.34   Q 253.85 297.84 249.14 288.60   Q 241.09 272.82 245.00 255.01   C 246.00 250.45 247.83 244.69 250.34 240.61   Q 256.62 230.44 266.63 223.37   Q 272.32 219.34 278.45 218.18   C 284.76 216.98 287.95 221.40 290.70 226.88   Q 293.33 232.13 298.11 242.42   C 303.83 254.73 312.36 264.22 324.09 272.57   Q 333.58 279.32 342.24 283.52   C 354.33 289.38 369.98 295.78 380.01 300.38   Q 390.77 305.33 401.18 309.53   Q 402.43 310.04 403.78 311.00   A 0.46 0.45 59.4 0 1 403.57 311.82   Q 398.84 312.37 395.51 312.67   Q 391.07 313.07 387.57 314.01   Q 377.68 316.66 370.28 320.07   C 364.59 322.69 357.96 325.78 352.57 328.37   Q 339.39 334.71 326.00 335.94   Q 317.25 336.75 306.72 334.99   Q 298.46 333.62 288.84 328.55   Q 280.24 324.02 272.38 318.63   A 0.50 0.50 0.0 0 0 271.73 319.38   Q 276.24 324.20 281.89 329.83   Q 289.38 337.29 297.90 339.86   Q 307.89 342.88 316.05 342.83   Q 319.00 342.82 326.61 341.00   Q 331.34 339.86 336.88 337.72   Q 353.95 331.12 358.03 328.98   C 370.26 322.56 382.31 317.08 395.75 316.07   Q 403.97 315.45 413.43 318.12   Q 418.90 319.67 428.51 324.42   Q 440.60 330.40 443.22 331.33   Q 454.16 335.24 462.57 336.91   Q 477.73 339.92 493.80 336.54   Q 496.50 335.97 512.46 331.33   A 4.62 4.59 -54.6 0 1 513.50 331.15   C 516.70 330.99 519.76 329.93 523.16 329.77   Q 534.69 329.22 545.20 331.37   Q 548.11 331.97 559.72 336.13   Q 567.24 338.82 577.95 342.92   Q 584.27 345.34 588.83 346.45   Q 597.12 348.48 600.00 348.95   Q 603.41 349.50 614.27 351.31   A 0.31 0.31 0.0 0 1 614.33 351.90   Q 612.66 352.54 610.53 352.72   C 600.47 353.57 590.72 352.15 578.77 349.93   Q 568.42 348.01 561.13 346.96   C 545.64 344.73 529.56 347.30 515.38 353.44   Q 503.00 358.79 494.10 367.67   Q 487.20 374.53 478.91 385.91   Q 469.17 399.28 463.38 405.62   C 457.55 412.02 451.82 415.92 445.23 421.21   Q 439.87 425.52 432.40 429.18   Q 427.23 431.72 418.58 433.66   Q 408.69 435.89 395.38 440.40   Q 390.66 442.00 385.25 444.99   Q 375.10 450.59 368.39 459.12   Q 363.72 465.05 360.79 474.99   A 0.31 0.31 0.0 0 0 361.29 475.31   Q 362.04 474.66 361.90 473.29   A 0.34 0.29 -33.5 0 1 361.96 473.08   L 368.43 463.17   A 6.48 6.16 85.5 0 1 369.25 462.16   Q 381.89 449.19 398.03 443.76   Q 408.02 440.40 410.27 439.50   C 413.88 438.05 418.19 437.38 422.36 435.92   A 0.47 0.47 0.0 0 1 422.78 436.75   Q 416.26 441.16 411.61 443.88   Q 407.59 446.23 402.83 449.64   Q 399.23 452.21 394.31 455.77   Q 393.47 456.38 393.28 456.53   Q 386.57 462.00 381.16 468.17   Q 371.21 479.53 368.00 493.89   Q 366.21 501.88 366.12 506.72   Q 366.00 512.55 368.04 519.52   Q 370.06 526.43 374.78 532.76   C 377.69 536.66 380.23 541.02 381.99 544.14   A 0.27 0.27 0.0 0 1 381.64 544.51   C 379.94 543.68 379.31 542.01 378.16 540.76   Q 372.84 534.98 365.79 528.47   Q 363.29 526.16 354.70 516.80   C 344.19 505.34 342.03 487.80 344.87 473.06   Q 345.16 471.53 346.85 465.65   C 351.15 450.57 362.22 437.89 375.78 429.80   Q 387.18 423.00 399.55 419.21   Q 406.30 417.15 407.84 416.60   Q 436.05 406.52 454.51 382.75   Q 458.44 377.69 461.31 371.82   A 0.22 0.22 0.0 0 0 461.22 371.54   L 461.21 371.53   A 0.30 0.28 -56.5 0 0 460.83 371.62   Q 451.00 385.96 432.56 399.10   Q 415.20 411.48 397.78 416.67   Q 386.47 420.03 371.42 421.67   Q 360.60 422.84 344.63 423.73   A 0.27 0.27 0.0 0 1 344.51 423.21   Q 358.17 417.54 368.46 407.08   C 370.33 405.19 370.94 403.78 372.27 401.92   A 1.05 1.03 -17.8 0 0 372.37 401.73   L 374.55 396.59   A 0.06 0.05 -15.9 0 0 374.45 396.54   Z   M 322.19 354.95   Q 322.15 354.91 317.15 355.33   Q 314.66 355.53 312.36 355.34   Q 294.43 353.82 279.50 346.44   Q 263.88 338.72 253.73 325.02   Q 250.74 320.99 248.27 313.03   Q 247.80 311.51 245.58 308.82   A 3.44 3.42 -5.3 0 0 244.61 308.02   Q 234.46 302.36 229.44 296.48   Q 215.16 279.71 220.56 257.22   Q 223.88 243.41 234.62 232.50   Q 235.05 232.06 235.65 231.91   Q 236.88 231.60 236.92 231.06   A 0.30 0.29 -21.5 0 0 236.41 230.84   Q 235.48 231.82 233.63 232.20   A 1.11 1.11 0.0 0 0 232.86 232.77   C 232.07 234.23 228.88 235.68 227.41 237.10   C 214.79 249.23 206.30 266.35 206.64 284.00   Q 206.83 294.00 208.43 300.39   Q 213.07 318.98 227.50 333.19   Q 234.10 339.69 244.24 345.47   Q 254.44 351.29 262.99 354.29   Q 282.24 361.04 304.74 359.87   C 310.71 359.55 317.03 358.38 322.14 355.54   A 0.36 0.35 50.4 0 0 322.19 354.95   Z"/>
<path xmlns="http://www.w3.org/2000/svg" fill="#010608" d="   M 646.21 369.50   Q 647.22 368.56 648.10 368.35   Q 664.59 364.32 681.02 368.50   Q 692.74 371.47 701.55 380.67   C 706.56 385.90 710.01 391.13 711.39 397.74   C 712.14 401.34 712.58 404.48 710.42 407.47   A 1.33 1.32 -75.6 0 1 709.50 408.02   C 704.68 408.62 702.16 404.57 700.45 400.64   C 698.53 396.23 696.06 391.75 693.19 388.57   C 688.94 383.86 685.22 379.90 679.92 376.77   Q 676.43 374.71 671.47 373.10   Q 659.28 369.14 646.42 369.99   A 0.28 0.28 0.0 0 1 646.21 369.50   Z"/>
<path xmlns="http://www.w3.org/2000/svg" fill="#010608" d="   M 510.51 421.85   A 0.22 0.22 0.0 0 0 510.18 421.58   C 506.26 424.59 502.67 427.73 499.16 431.37   Q 491.66 439.14 487.88 442.39   Q 472.59 455.57 453.73 465.22   Q 449.58 467.34 449.04 472.28   C 446.79 492.76 441.76 511.17 432.36 529.25   Q 429.12 535.48 421.41 546.26   C 412.20 559.14 409.46 563.02 401.90 573.28   Q 396.55 580.55 394.59 584.09   Q 386.46 598.77 377.02 612.27   Q 360.49 635.89 339.20 653.66   Q 328.18 662.85 313.25 670.97   Q 296.31 680.19 277.22 687.11   Q 266.56 690.98 263.17 692.32   Q 251.69 696.87 249.33 698.09   Q 241.43 702.19 238.91 703.65   C 222.81 712.97 209.14 727.16 203.91 745.39   Q 197.69 767.06 205.36 787.44   C 209.25 797.77 215.31 806.83 223.40 815.13   Q 254.67 847.23 301.02 850.88   C 306.09 851.28 313.26 851.70 319.35 851.42   Q 348.96 850.03 379.25 842.98   C 388.37 840.86 399.62 838.07 406.93 835.81   Q 441.95 824.99 471.87 811.85   Q 515.37 792.74 556.91 767.82   Q 582.15 752.68 583.05 752.14   C 599.28 742.41 618.91 729.09 632.84 720.39   Q 652.19 708.30 657.22 705.49   C 666.76 700.17 679.51 693.61 691.04 689.80   Q 707.70 684.28 723.47 682.20   Q 727.81 681.63 732.43 682.62   C 735.16 683.20 737.65 682.87 739.87 683.34   A 0.41 0.41 0.0 0 1 739.86 684.14   Q 723.72 687.11 708.30 694.07   C 701.37 697.19 698.34 698.43 692.74 701.27   Q 674.37 710.59 670.39 712.67   Q 652.01 722.27 632.64 733.89   Q 607.25 749.12 595.07 756.82   Q 569.91 772.73 560.24 778.30   Q 538.87 790.61 524.48 798.21   Q 497.69 812.37 472.01 823.00   C 457.10 829.18 437.28 836.82 419.41 842.31   Q 391.06 851.02 381.84 853.32   Q 364.46 857.65 347.24 860.90   Q 340.54 862.17 328.59 863.53   Q 314.33 865.16 298.29 864.33   C 294.15 864.12 291.09 863.09 287.40 863.06   Q 285.56 863.04 283.05 862.38   C 269.75 858.87 259.42 853.31 248.37 845.33   Q 240.32 839.52 233.24 831.95   Q 217.85 815.49 206.36 795.88   Q 198.44 782.36 195.86 767.57   Q 193.10 751.71 197.66 736.46   A 0.33 0.33 0.0 0 0 197.39 736.04   L 197.12 736.00   A 0.23 0.22 -73.7 0 0 196.89 736.13   Q 193.33 744.42 192.97 745.72   Q 191.27 751.82 190.79 758.17   A 0.21 0.21 0.0 0 1 190.53 758.36   L 190.05 758.26   A 0.03 0.02 31.7 0 1 190.04 758.24   Q 188.76 745.45 193.28 734.49   Q 197.53 724.20 204.32 716.31   C 208.89 710.99 214.80 705.08 221.24 701.05   Q 233.74 693.21 247.37 688.62   Q 258.09 685.02 269.61 681.94   Q 276.28 680.16 279.90 678.85   C 284.72 677.11 288.91 675.99 293.37 673.91   Q 309.82 666.27 323.05 655.05   Q 338.55 641.90 349.69 628.71   Q 361.27 615.00 370.99 601.01   C 377.54 591.58 384.41 580.69 387.73 569.03   Q 391.86 554.54 387.38 539.57   C 385.09 531.93 381.51 522.98 380.19 515.52   Q 377.90 502.47 381.75 488.79   Q 384.18 480.19 387.91 474.44   C 392.42 467.51 396.66 462.05 403.34 456.43   Q 411.17 449.83 421.37 444.34   Q 426.46 441.60 440.95 436.50   Q 450.90 433.00 460.84 428.31   Q 468.28 424.81 475.60 418.81   Q 480.23 415.01 482.19 413.48   Q 494.56 403.83 494.58 403.82   Q 497.79 401.06 500.47 399.46   C 510.45 393.50 515.91 390.29 525.00 387.52   Q 529.62 386.10 541.48 384.23   Q 544.47 383.76 554.17 384.45   Q 561.50 384.97 566.85 384.96   Q 590.45 384.92 612.02 375.62   A 1.44 1.40 12.0 0 0 612.40 375.38   Q 613.17 374.72 613.68 374.81   A 0.53 0.53 0.0 0 1 613.92 375.75   Q 596.77 389.25 575.59 394.18   Q 572.67 394.86 571.65 394.96   C 569.41 395.17 568.06 395.68 566.36 395.89   Q 557.55 396.96 549.54 400.05   C 522.96 410.30 504.40 438.76 516.79 466.96   A 0.30 0.30 0.0 0 1 516.44 467.37   Q 515.34 467.06 514.64 466.07   Q 507.46 455.91 506.18 442.96   C 505.40 434.99 506.99 428.89 510.51 421.85   Z   M 534.52 396.33   Q 522.11 398.93 511.17 405.45   Q 508.30 407.17 507.40 407.68   Q 505.07 409.02 503.74 410.05   Q 503.29 410.39 478.38 429.63   Q 468.78 437.05 459.30 441.77   Q 447.95 447.42 432.21 452.73   C 429.54 453.63 426.18 455.10 422.93 456.45   C 413.39 460.43 402.88 467.92 398.59 477.55   C 396.42 482.44 394.83 486.94 394.85 491.33   A 0.28 0.27 -37.5 0 0 395.39 491.40   Q 396.60 487.07 399.27 481.76   Q 405.33 469.70 416.44 463.20   Q 421.07 460.49 428.56 458.49   Q 436.82 456.29 441.12 454.83   Q 457.86 449.17 472.74 438.47   Q 483.73 430.57 498.48 418.49   Q 504.25 413.77 511.40 408.92   Q 522.77 401.21 534.87 397.22   A 0.41 0.40 73.0 0 0 535.13 396.72   L 535.13 396.70   A 0.52 0.52 0.0 0 0 534.52 396.33   Z   M 441.34 476.56   Q 441.27 476.91 440.78 477.56   Q 432.69 488.33 429.18 495.16   C 425.49 502.35 420.34 512.01 416.32 521.16   Q 411.21 532.81 406.66 543.48   A 1.05 1.03 -17.8 0 1 406.56 543.67   L 404.82 546.43   A 0.43 0.42 9.4 0 0 405.28 547.07   Q 406.40 546.80 407.20 545.97   Q 434.51 517.80 442.14 479.17   Q 442.41 477.81 442.10 476.54   A 0.39 0.39 0.0 0 0 441.34 476.56   Z"/>
<path xmlns="http://www.w3.org/2000/svg" fill="#010608" d="   M 692.38 409.28   A 0.86 0.86 0.0 0 1 693.70 410.28   C 693.00 412.13 692.88 413.72 692.20 415.37   Q 689.91 420.89 686.31 424.92   A 3.57 3.57 0.0 0 0 685.75 425.76   Q 683.06 431.48 683.05 438.16   A 0.48 0.47 -13.8 0 0 683.75 438.58   Q 686.16 437.31 687.74 439.03   A 0.58 0.57 72.6 0 1 687.24 439.99   L 685.08 439.69   A 1.34 1.34 0.0 0 0 683.56 440.84   Q 683.21 443.49 681.61 443.13   C 679.24 442.60 678.02 441.03 676.82 438.76   Q 674.35 434.13 671.17 431.79   C 664.07 426.58 660.34 424.45 657.29 417.48   Q 653.01 407.67 651.96 396.35   A 0.60 0.49 -65.7 0 0 651.92 396.20   L 649.67 390.07   A 0.39 0.39 0.0 0 1 650.23 389.59   Q 658.65 394.24 663.08 402.68   C 666.95 410.07 669.51 416.09 676.38 420.11   C 678.09 421.11 679.58 421.34 681.43 420.19   Q 686.21 417.21 688.90 412.91   Q 690.12 410.95 692.38 409.28   Z"/>
<path xmlns="http://www.w3.org/2000/svg" fill="#010608" d="   M 694.57 500.47   A 0.26 0.25 -14.9 0 1 694.37 500.81   L 683.26 502.71   A 4.39 4.36 -40.7 0 1 681.18 502.56   Q 679.30 501.97 677.44 502.29   A 2.04 2.03 -29.9 0 1 675.82 501.86   Q 670.56 497.58 669.25 495.36   Q 668.08 493.39 670.29 492.17   Q 671.79 491.35 674.35 492.70   Q 680.54 496.00 686.66 497.21   A 3.10 3.02 67.9 0 1 687.87 497.74   Q 689.99 499.24 693.21 499.34   Q 694.15 499.37 694.57 500.47   Z"/>
<path xmlns="http://www.w3.org/2000/svg" fill="#010608" d="   M 319.96 623.88   A 0.35 0.35 0.0 0 1 319.87 623.19   Q 343.67 616.41 357.63 596.41   Q 365.59 585.00 366.69 571.36   A 0.49 0.49 0.0 0 0 365.74 571.17   C 359.54 590.76 344.84 604.60 325.23 611.22   Q 314.91 614.71 306.38 615.61   Q 286.82 617.68 283.70 618.21   Q 279.31 618.95 271.17 621.69   C 262.58 624.57 253.61 629.59 247.77 636.61   Q 244.29 640.78 242.86 642.87   Q 237.73 650.33 236.62 651.65   Q 230.87 658.47 221.29 661.30   Q 215.94 662.87 212.41 663.73   C 205.42 665.43 199.57 668.44 195.19 673.36   Q 191.41 677.61 190.07 682.80   Q 187.64 692.21 191.97 701.32   A 0.23 0.23 0.0 0 1 191.69 701.64   Q 190.89 701.37 190.55 700.91   Q 188.79 698.52 186.13 694.44   C 184.69 692.24 183.96 686.97 183.98 684.09   Q 184.14 666.83 199.24 659.49   C 202.20 658.05 205.88 657.36 209.35 656.38   A 6.49 6.46 -52.5 0 1 211.06 656.15   Q 218.11 656.15 222.47 654.65   C 231.29 651.60 234.21 644.72 238.18 636.41   Q 242.11 628.21 249.83 621.83   Q 258.27 614.87 269.48 610.11   Q 276.11 607.29 291.38 603.26   Q 306.13 599.37 320.40 594.17   C 338.98 587.40 355.91 573.97 359.64 553.96   Q 359.65 553.87 360.47 548.33   Q 360.94 545.15 360.72 542.65   Q 359.96 533.93 357.59 526.70   A 0.54 0.53 15.1 0 1 358.50 526.18   Q 360.65 528.56 364.23 533.03   Q 373.02 544.03 374.52 559.25   Q 375.43 568.41 374.20 574.95   Q 369.11 602.16 346.52 615.55   Q 338.92 620.05 326.95 623.11   C 324.76 623.67 321.90 623.90 319.96 623.88   Z"/>
<path xmlns="http://www.w3.org/2000/svg" fill="#010608" d="   M 467.97 542.78   A 0.29 0.29 0.0 0 1 468.54 542.91   Q 468.02 547.42 467.19 551.02   Q 466.18 555.41 465.71 559.09   Q 463.54 576.03 463.15 583.25   Q 460.94 624.06 471.31 659.97   Q 478.32 684.25 493.17 711.75   A 0.67 0.64 48.0 0 1 493.15 712.42   L 492.91 712.78   A 0.28 0.28 0.0 0 1 492.39 712.65   Q 492.35 712.07 488.61 707.86   Q 486.71 705.71 484.91 703.15   Q 478.63 694.19 474.25 684.71   Q 462.12 658.41 458.47 631.29   Q 456.26 614.81 457.26 593.20   A 5.30 4.57 56.7 0 1 457.37 592.36   Q 457.73 590.77 457.90 589.01   Q 460.37 564.39 467.97 542.78   Z"/>
<path xmlns="http://www.w3.org/2000/svg" fill="#010608" d="   M 246.62 673.20   C 257.73 669.75 264.92 667.83 271.79 659.35   Q 273.55 657.18 274.52 654.68   Q 275.94 650.98 275.90 649.46   Q 275.75 644.28 275.76 641.52   Q 275.81 630.40 285.19 625.49   Q 287.73 624.17 293.75 622.96   Q 295.10 622.69 304.45 623.08   A 0.24 0.24 0.0 0 1 304.56 623.53   Q 304.42 623.61 304.00 623.44   C 303.61 623.28 301.83 624.16 300.19 624.87   Q 298.30 625.68 296.83 626.09   C 290.60 627.83 285.09 633.11 284.88 639.99   Q 284.68 646.25 284.72 649.74   Q 284.77 654.33 281.49 658.65   Q 275.23 666.88 265.85 670.42   Q 259.98 672.63 254.26 673.66   Q 251.84 674.10 246.65 673.49   A 0.15 0.15 0.0 0 1 246.62 673.20   Z"/>
<path xmlns="http://www.w3.org/2000/svg" fill="#010608" d="   M 514.55 725.27   A 0.15 0.15 0.0 0 1 514.48 724.98   Q 520.05 723.12 524.77 720.74   C 533.12 716.53 538.15 714.91 547.00 711.08   Q 552.65 708.64 559.24 706.33   Q 589.80 695.63 621.05 688.55   Q 628.02 686.97 636.78 685.14   Q 648.48 682.69 676.68 679.48   C 681.63 678.91 685.53 679.24 689.87 678.88   C 696.64 678.31 701.87 678.98 709.39 679.22   A 1.21 1.19 -9.1 0 1 710.47 679.99   L 710.48 680.02   A 0.53 0.53 0.0 0 1 710.01 680.73   C 703.94 681.09 696.77 680.88 689.26 681.62   Q 675.43 683.00 671.17 683.21   A 8.76 8.04 -3.1 0 0 669.94 683.35   Q 667.65 683.79 665.76 684.00   Q 648.67 685.98 628.98 690.95   Q 615.55 694.34 603.92 697.89   C 584.42 703.85 564.36 710.03 547.07 715.76   Q 537.10 719.06 527.06 722.32   Q 520.03 724.61 514.55 725.27   Z"/>
<path xmlns="http://www.w3.org/2000/svg" fill="#010608" d="   M 754.32 689.78   A 0.23 0.23 0.0 0 1 754.28 690.22   Q 751.82 690.60 748.12 691.63   C 737.68 694.56 725.56 699.78 715.28 703.66   Q 691.63 712.57 672.25 719.61   A 0.31 0.30 67.0 0 1 671.87 719.45   L 671.87 719.44   A 0.33 0.32 -27.4 0 1 672.01 719.02   Q 678.27 715.54 678.59 715.37   Q 697.36 705.61 707.40 701.18   Q 717.62 696.67 729.37 692.86   Q 740.53 689.24 751.11 688.84   A 2.49 2.43 52.5 0 1 752.01 688.97   L 754.32 689.78   Z"/>
<path xmlns="http://www.w3.org/2000/svg" fill="#010608" d="   M 438.48 902.62   C 439.73 902.03 441.72 902.19 443.46 901.69   Q 455.01 898.36 455.99 898.14   Q 459.65 897.32 464.63 895.22   Q 464.91 895.10 473.24 892.22   Q 484.20 888.44 495.88 882.88   Q 527.46 867.83 555.28 850.53   Q 571.13 840.67 600.69 819.62   C 612.07 811.52 623.47 801.83 635.31 792.61   Q 644.07 785.79 649.04 781.69   Q 672.10 762.67 676.86 758.61   Q 688.88 748.36 702.50 737.75   Q 702.98 737.38 704.41 736.19   Q 714.69 727.68 724.04 721.24   A 0.31 0.31 0.0 0 0 723.86 720.67   Q 721.53 720.68 719.99 722.15   A 2.00 1.95 15.3 0 1 719.09 722.65   Q 718.88 722.70 713.68 725.09   C 707.80 727.80 702.13 731.40 696.66 733.97   C 694.27 735.09 692.25 736.86 689.80 737.95   A 0.23 0.23 0.0 0 1 689.52 737.60   Q 690.53 736.29 691.65 735.42   Q 703.58 726.16 726.71 711.47   C 735.26 706.05 745.52 700.57 755.50 700.06   Q 758.77 699.89 764.10 702.45   A 3.26 3.07 -24.9 0 0 764.88 702.71   L 768.16 703.40   A 0.95 0.94 0.9 0 1 768.90 704.16   Q 769.00 704.71 769.33 705.07   A 0.43 0.43 0.0 0 1 769.23 705.73   Q 768.63 706.08 763.57 707.15   C 759.67 707.97 756.05 710.08 752.06 711.91   C 739.31 717.76 725.22 725.56 713.99 734.73   Q 698.24 747.60 684.12 760.37   Q 662.91 779.57 626.71 812.02   C 623.38 815.00 618.76 818.86 614.54 822.53   Q 603.15 832.45 586.42 845.39   Q 572.12 856.46 554.30 867.30   Q 522.43 886.68 486.61 896.33   C 474.32 899.64 462.05 901.61 449.18 902.86   Q 446.17 903.16 438.54 902.93   A 0.16 0.16 0.0 0 1 438.48 902.62   Z"/>
<path xmlns="http://www.w3.org/2000/svg" fill="#010608" d="   M 345.43 707.91   L 345.47 707.62   A 0.16 0.15 -2.4 0 1 345.60 707.48   Q 358.36 705.27 360.49 705.24   Q 361.74 705.22 373.25 704.32   Q 391.09 702.91 408.63 704.17   C 426.72 705.47 443.74 707.97 460.41 713.84   Q 471.24 717.65 474.76 719.28   Q 476.10 719.90 477.63 720.98   A 0.28 0.28 0.0 0 1 477.41 721.48   C 468.15 719.62 457.02 716.51 446.31 714.68   Q 418.11 709.85 404.18 709.20   C 399.13 708.97 391.26 708.11 386.53 707.94   Q 366.53 707.22 345.74 708.25   A 0.30 0.30 0.0 0 1 345.43 707.91   Z"/>
<path xmlns="http://www.w3.org/2000/svg" fill="#010608" d="   M 717.85 711.13   A 0.48 0.48 0.0 0 1 718.17 712.03   Q 717.42 712.45 711.93 714.74   Q 709.18 715.89 705.90 717.68   Q 670.00 737.32 648.00 751.04   Q 624.43 765.72 604.03 780.55   Q 581.93 796.61 563.96 809.46   Q 528.37 834.92 491.55 856.05   Q 465.74 870.87 438.07 880.84   Q 419.99 887.37 399.93 891.44   Q 356.20 900.32 315.42 885.22   C 304.55 881.20 294.97 875.82 283.88 870.14   A 0.39 0.39 0.0 0 1 284.17 869.41   L 289.12 870.89   A 5.02 4.70 55.0 0 0 289.93 871.06   Q 307.38 872.97 326.82 870.62   Q 337.43 869.33 341.48 868.59   Q 354.18 866.27 357.89 865.40   Q 400.54 855.40 433.74 844.44   Q 442.36 841.59 458.95 835.92   Q 467.52 832.99 488.11 824.27   C 517.92 811.64 546.34 797.25 575.36 781.35   Q 590.90 772.82 626.27 752.29   Q 644.38 741.78 652.93 737.43   Q 659.06 734.30 673.29 727.35   Q 679.07 724.53 686.95 721.65   Q 691.95 719.83 700.78 716.31   C 704.04 715.00 708.70 713.88 711.93 712.70   Q 714.70 711.69 717.85 711.13   Z"/>
<path xmlns="http://www.w3.org/2000/svg" fill="#010608" d="   M 732.96 761.16   C 729.97 763.95 727.23 767.64 724.78 770.55   Q 719.48 776.84 715.44 782.44   C 709.23 791.07 702.80 799.77 697.88 807.62   C 692.52 816.18 686.70 825.13 682.32 832.37   Q 666.87 857.92 659.86 869.11   Q 656.18 874.98 652.93 878.89   A 0.07 0.07 0.0 0 1 652.81 878.81   Q 670.55 845.68 686.28 818.22   Q 690.39 811.05 690.52 810.81   Q 706.44 782.42 726.11 757.41   Q 729.87 752.63 735.16 746.83   Q 742.73 738.52 744.71 736.70   Q 755.47 726.80 759.18 724.44   Q 765.54 720.40 772.52 717.14   A 0.42 0.42 0.0 0 1 773.07 717.72   Q 772.71 718.42 771.87 719.10   Q 767.79 722.37 763.58 727.33   Q 760.52 730.92 755.33 737.26   Q 751.35 742.12 747.66 747.62   Q 737.27 763.06 729.19 777.45   Q 729.01 777.76 727.28 780.72   Q 718.12 796.32 704.81 824.54   Q 691.82 852.10 677.27 888.79   A 0.46 0.46 0.0 0 1 676.70 889.06   L 676.68 889.05   A 0.50 0.49 -74.1 0 1 676.35 888.45   Q 682.10 866.57 683.29 863.05   Q 689.86 843.71 696.89 826.37   C 701.93 813.95 708.33 799.85 716.37 787.05   Q 726.39 771.09 729.20 767.19   Q 733.27 761.54 733.31 761.35   A 0.21 0.21 0.0 0 0 732.96 761.16   Z"/>
<path xmlns="http://www.w3.org/2000/svg" fill="#010608" d="   M 706.78 849.14   A 0.27 0.27 0.0 0 1 706.43 849.24   L 706.42 849.24   A 0.19 0.18 25.1 0 1 706.33 849.01   Q 707.94 845.09 710.06 841.11   C 711.34 838.71 712.22 836.23 713.24 834.23   Q 714.87 831.05 722.99 816.24   Q 737.96 788.95 762.22 769.22   Q 768.50 764.11 775.33 760.11   Q 777.43 758.87 777.90 758.84   A 0.23 0.22 -68.7 0 1 778.07 759.23   Q 776.81 760.44 775.60 761.11   Q 775.30 761.28 775.00 761.45   Q 774.73 761.61 761.17 774.16   Q 754.96 779.91 743.65 794.38   Q 728.79 813.39 717.84 830.82   Q 712.72 838.98 706.78 849.14   Z"/>
<path xmlns="http://www.w3.org/2000/svg" fill="#010608" d="   M 555.64 894.37   A 0.16 0.16 0.0 0 1 555.55 894.08   C 569.76 883.95 583.12 872.58 597.40 858.89   Q 627.55 830.00 663.79 790.79   Q 683.81 769.12 690.24 762.74   Q 691.47 761.52 692.39 761.02   A 0.27 0.27 0.0 0 1 692.72 761.45   Q 691.04 763.25 690.40 764.14   C 685.74 770.61 679.42 778.24 675.28 783.69   Q 653.51 812.36 642.95 825.46   C 627.76 844.30 610.95 861.67 591.48 875.12   Q 576.68 885.34 556.81 894.08   Q 556.13 894.37 555.64 894.37   Z"/>
<path xmlns="http://www.w3.org/2000/svg" fill="#010608" d="   M 651.80 880.33   Q 651.86 880.25 652.10 880.11   A 0.12 0.12 0.0 0 1 652.28 880.20   Q 652.30 880.50 652.17 880.66   A 0.25 0.24 85.1 0 1 651.80 880.33   Z"/>
</g></g></g></svg>